<svg width="880" height="620" viewBox="0 0 880 620" fill="none" xmlns="http://www.w3.org/2000/svg">
  <rect width="880" height="620" rx="36" fill="#F8E7E3"/>
  <rect x="110" y="54" width="660" height="512" rx="28" fill="#FFF9F7" stroke="#E5B7AF" stroke-width="4"/>
  <rect x="154" y="96" width="180" height="24" rx="12" fill="#D98E85" opacity="0.85"/>
  <rect x="154" y="136" width="270" height="14" rx="7" fill="#EDC1BA"/>
  <rect x="154" y="170" width="220" height="14" rx="7" fill="#EDC1BA"/>
  <rect x="540" y="98" width="186" height="92" rx="18" fill="#FCE4E0" stroke="#F4B3A9" stroke-dasharray="8 8" stroke-width="3"/>
  <circle cx="580" cy="127" r="9" fill="#E66A5B"/>
  <rect x="603" y="120" width="92" height="12" rx="6" fill="#E9AAA0"/>
  <rect x="603" y="142" width="68" height="10" rx="5" fill="#F2C2BA"/>
  <rect x="154" y="222" width="150" height="18" rx="9" fill="#D98E85" opacity="0.75"/>
  <rect x="154" y="258" width="572" height="12" rx="6" fill="#F0D0CB"/>
  <rect x="154" y="282" width="544" height="12" rx="6" fill="#F0D0CB"/>
  <rect x="154" y="306" width="486" height="12" rx="6" fill="#F0D0CB"/>
  <rect x="154" y="346" width="150" height="18" rx="9" fill="#D98E85" opacity="0.75"/>
  <rect x="154" y="382" width="554" height="12" rx="6" fill="#F0D0CB"/>
  <rect x="154" y="406" width="494" height="12" rx="6" fill="#F0D0CB"/>
  <rect x="154" y="430" width="462" height="12" rx="6" fill="#F0D0CB"/>
  <g opacity="0.88">
    <path d="M638 360L700 422" stroke="#D96C5F" stroke-width="12" stroke-linecap="round"/>
    <path d="M700 360L638 422" stroke="#D96C5F" stroke-width="12" stroke-linecap="round"/>
  </g>
  <rect x="530" y="448" width="196" height="64" rx="16" fill="#FFF1EE" stroke="#F1B6AD" stroke-width="3"/>
  <rect x="554" y="467" width="112" height="12" rx="6" fill="#E9AAA0"/>
  <rect x="554" y="488" width="142" height="10" rx="5" fill="#F4CDC7"/>
</svg>
